<?xml version="1.0" encoding="UTF-8" standalone="no"?>
<!-- Created with Inkscape (http://www.inkscape.org/) -->

<svg
   width="30.48mm"
   height="128.5mm"
   viewBox="0 0 30.48 128.5"
   version="1.1"
   id="svg1"
   sodipodi:docname="kookaburra.svg"
   inkscape:version="1.4 (e7c3feb1, 2024-10-09)"
   inkscape:export-filename="kookaburra.svg"
   inkscape:export-xdpi="96"
   inkscape:export-ydpi="96"
   xml:space="preserve"
   xmlns:inkscape="http://www.inkscape.org/namespaces/inkscape"
   xmlns:sodipodi="http://sodipodi.sourceforge.net/DTD/sodipodi-0.dtd"
   xmlns="http://www.w3.org/2000/svg"
   xmlns:svg="http://www.w3.org/2000/svg"><sodipodi:namedview
     id="namedview1"
     pagecolor="#ffffff"
     bordercolor="#000000"
     borderopacity="0.25"
     inkscape:showpageshadow="2"
     inkscape:pageopacity="0.0"
     inkscape:pagecheckerboard="0"
     inkscape:deskcolor="#d1d1d1"
     inkscape:document-units="mm"
     inkscape:export-bgcolor="#ffffffff"
     inkscape:zoom="1.3702277"
     inkscape:cx="8.3927656"
     inkscape:cy="240.83588"
     inkscape:window-width="1104"
     inkscape:window-height="789"
     inkscape:window-x="361"
     inkscape:window-y="1225"
     inkscape:window-maximized="0"
     inkscape:current-layer="svg1"><inkscape:page
       x="0"
       y="0"
       width="30.48"
       height="128.5"
       id="page2"
       margin="0"
       bleed="0" /></sodipodi:namedview><defs
     id="defs1" /><rect
     style="fill:#cccccc;stroke-width:0.264583"
     id="rect5"
     width="30.48"
     height="128.5"
     x="0"
     y="0"
     inkscape:label="panel" /><path
     d="m 8.6008702,41.438412 q 0.071313,0.06046 0.2402954,0.06046 0.2387452,0 0.3193603,-0.15968 0.05271,-0.102319 0.05271,-0.344165 v -0.10852 q -0.063562,0.10852 -0.1364258,0.16278 -0.1317749,0.100769 -0.3426147,0.100769 -0.3255616,0 -0.5208985,-0.227893 -0.1937866,-0.229443 -0.1937866,-0.620117 0,-0.376721 0.1875856,-0.632519 0.1875853,-0.257349 0.5317503,-0.257349 0.1271241,0 0.221692,0.03876 0.1612305,0.06666 0.2604492,0.244947 v -0.243396 h 0.4294312 v 1.603002 q 0,0.327113 -0.1100709,0.492994 -0.1891358,0.285254 -0.725537,0.285254 -0.3240114,0 -0.5286499,-0.127124 Q 8.081522,41.579489 8.059818,41.326791 h 0.4805907 q 0.018603,0.07751 0.060461,0.111621 z m -0.074414,-0.872815 q 0.089917,0.21394 0.3224609,0.21394 0.1550292,0 0.2619994,-0.116272 0.1069703,-0.117822 0.1069703,-0.37362 0,-0.240296 -0.1023194,-0.365869 -0.100769,-0.125574 -0.2713011,-0.125574 -0.2325439,0 -0.3209108,0.218591 -0.046509,0.116272 -0.046509,0.286805 0,0.147277 0.04961,0.261999 z m 2.3859008,-0.705383 q -0.26665,0 -0.358118,0.173633 -0.05116,0.09767 -0.05116,0.300756 v 0.807703 h -0.444935 v -1.689819 h 0.42168 v 0.294555 q 0.10232,-0.168982 0.178284,-0.230993 0.124024,-0.10387 0.322461,-0.10387 0.0124,0 0.02015,0.0016 0.0093,0 0.03876,0.0016 v 0.452686 q -0.04186,-0.0047 -0.07441,-0.0062 -0.03256,-0.0016 -0.05271,-0.0016 z m 0.449585,-0.224793 q 0.175183,-0.223242 0.601514,-0.223242 0.277502,0 0.492993,0.110071 0.215491,0.110071 0.215491,0.415478 v 0.775147 q 0,0.08062 0.0031,0.195337 0.0047,0.08682 0.02636,0.117822 0.0217,0.03101 0.06511,0.05116 v 0.06511 h -0.480591 q -0.02015,-0.05116 -0.0279,-0.09612 -0.0078,-0.04496 -0.0124,-0.10232 -0.09147,0.09922 -0.21084,0.168982 -0.142627,0.08217 -0.322461,0.08217 -0.229443,0 -0.379822,-0.130225 -0.148828,-0.131775 -0.148828,-0.37207 0,-0.311609 0.240296,-0.451135 0.131775,-0.07596 0.387573,-0.108521 l 0.150378,-0.0186 q 0.122473,-0.0155 0.175183,-0.03876 0.09457,-0.04031 0.09457,-0.125574 0,-0.10387 -0.07286,-0.142627 -0.07131,-0.04031 -0.21084,-0.04031 -0.15658,0 -0.221692,0.07751 -0.04651,0.05736 -0.06201,0.155029 H 11.23792 q 0.01395,-0.221692 0.124024,-0.364319 z m 0.328662,1.187525 q 0.06201,0.05116 0.151929,0.05116 0.142627,0 0.261999,-0.08371 0.120923,-0.08372 0.125574,-0.305408 v -0.164331 q -0.04186,0.02636 -0.08527,0.04341 -0.04186,0.0155 -0.116272,0.02946 l -0.09922,0.0186 q -0.139526,0.02481 -0.199988,0.06046 -0.102319,0.06046 -0.102319,0.187586 0,0.113171 0.06356,0.162781 z m 1.827795,-1.370459 v 1.689819 h -0.448034 v -1.689819 z m 0,-0.609265 v 0.407727 h -0.448034 v -0.407727 z m 1.223182,0.936377 q -0.224793,0 -0.308509,0.190686 -0.04341,0.100769 -0.04341,0.257348 v 0.914673 h -0.440283 v -1.686719 h 0.426331 v 0.246497 q 0.08526,-0.130225 0.16123,-0.187586 0.136426,-0.102319 0.345715,-0.102319 0.262,0 0.427881,0.137976 0.167432,0.136426 0.167432,0.454236 v 1.137915 h -0.452686 v -1.027844 q 0,-0.133325 -0.03566,-0.204639 -0.06511,-0.130224 -0.248046,-0.130224 z m 3.190502,-0.249598 q 0.198438,0.127124 0.227893,0.437183 h -0.441833 q -0.0093,-0.08527 -0.04806,-0.134876 -0.07286,-0.08992 -0.248047,-0.08992 -0.144177,0 -0.206189,0.04496 -0.06046,0.04496 -0.06046,0.10542 0,0.07596 0.06511,0.110071 0.06511,0.03566 0.460437,0.122473 0.26355,0.06201 0.395325,0.187585 0.130224,0.127124 0.130224,0.31781 0,0.251148 -0.187585,0.410828 -0.186035,0.15813 -0.576709,0.15813 -0.398425,0 -0.589111,-0.167432 -0.189136,-0.168982 -0.189136,-0.429431 h 0.448035 q 0.01395,0.117822 0.06046,0.167432 0.08216,0.08837 0.303857,0.08837 0.130225,0 0.206189,-0.03876 0.07751,-0.03876 0.07751,-0.116272 0,-0.07441 -0.06201,-0.113171 -0.06201,-0.03876 -0.460437,-0.133326 -0.286804,-0.07131 -0.404626,-0.178283 -0.117822,-0.10542 -0.117822,-0.303858 0,-0.234094 0.182934,-0.401525 0.184485,-0.168982 0.517798,-0.168982 0.31626,0 0.516247,0.125573 z m 1.05575,-0.07751 v 1.689819 h -0.448035 v -1.689819 z m 0,-0.609265 v 0.407727 h -0.448035 v -0.407727 z m 1.731677,2.299084 h -1.458826 v -0.344165 l 0.866614,-0.985986 h -0.807702 v -0.359668 h 1.370459 v 0.367419 l -0.857312,0.959631 h 0.886767 z m 1.730127,-0.496094 q -0.01705,0.150379 -0.156579,0.305408 -0.217042,0.246497 -0.607715,0.246497 -0.322461,0 -0.568958,-0.20774 -0.246496,-0.207739 -0.246496,-0.675927 0,-0.438733 0.221691,-0.672828 0.223243,-0.234094 0.57826,-0.234094 0.21084,0 0.379822,0.07906 0.168982,0.07906 0.279052,0.249597 0.09922,0.150379 0.128675,0.348816 0.01705,0.116272 0.01395,0.334863 h -1.156518 q 0.0093,0.254249 0.15968,0.356568 0.09147,0.06356 0.220141,0.06356 0.136426,0 0.221692,-0.07751 0.04651,-0.04186 0.08217,-0.116272 z m -0.437182,-0.517798 q -0.01085,-0.175183 -0.106971,-0.2651 -0.09457,-0.09147 -0.235644,-0.09147 -0.153479,0 -0.238745,0.09612 -0.08372,0.09612 -0.10542,0.260449 z"
     id="text10"
     style="font-weight:bold;font-size:12px;font-family:Helvetica;-inkscape-font-specification:'Helvetica Bold';text-align:center;text-anchor:middle;white-space:pre;stroke-width:0.264583"
     inkscape:label="grain_size"
     aria-label="grain size&#10;" /><path
     d="m 13.290506,63.166346 h -0.452685 q -0.0124,-0.09457 -0.06356,-0.170532 -0.07441,-0.102319 -0.230994,-0.102319 -0.223242,0 -0.305407,0.221692 -0.04341,0.117822 -0.04341,0.313159 0,0.186035 0.04341,0.299206 0.07906,0.21084 0.297656,0.21084 0.155029,0 0.220141,-0.08372 0.06511,-0.08372 0.07906,-0.217041 h 0.451135 q -0.0155,0.201538 -0.145727,0.381372 -0.207739,0.289905 -0.615466,0.289905 -0.407727,0 -0.599964,-0.241846 -0.192236,-0.241845 -0.192236,-0.627868 0,-0.435633 0.21239,-0.677478 0.21239,-0.241846 0.586011,-0.241846 0.31781,0 0.519348,0.142627 0.203088,0.142627 0.240295,0.503845 z m 0.137977,-0.606164 h 0.496093 l 0.351917,1.246435 0.359668,-1.246435 h 0.474389 l -0.609265,1.689819 h -0.466638 z m 3.268017,0 v 1.689819 h -0.448035 v -1.689819 z m 0,-0.609265 v 0.407727 h -0.448035 v -0.407727 z m 1.223181,0.936377 q -0.224792,0 -0.308508,0.190686 -0.04341,0.100769 -0.04341,0.257348 v 0.914673 h -0.440284 v -1.686719 h 0.426331 v 0.246497 q 0.08527,-0.130225 0.161231,-0.187586 0.136425,-0.102319 0.345715,-0.102319 0.261999,0 0.427881,0.137976 0.167431,0.136426 0.167431,0.454236 v 1.137915 h -0.452685 v -1.027844 q 0,-0.133325 -0.03566,-0.204639 -0.06511,-0.130224 -0.248047,-0.130224 z"
     id="text11"
     style="font-weight:bold;font-size:12px;font-family:Helvetica;-inkscape-font-specification:'Helvetica Bold';text-align:center;text-anchor:middle;white-space:pre;stroke-width:0.264583"
     inkscape:label="cv_in"
     aria-label="cv in&#10;" /><path
     d="m 12.021592,85.66788 v 1.689819 H 11.573557 V 85.66788 Z m 0,-0.609265 v 0.407727 h -0.448035 v -0.407727 z m 1.223181,0.936377 q -0.224793,0 -0.308509,0.190686 -0.04341,0.100769 -0.04341,0.257348 v 0.914673 H 12.452573 V 85.67098 h 0.426331 v 0.246497 q 0.08527,-0.130225 0.16123,-0.187586 0.136426,-0.102319 0.345715,-0.102319 0.262,0 0.427881,0.137976 0.167432,0.136426 0.167432,0.454236 v 1.137915 h -0.452686 v -1.027844 q 0,-0.133325 -0.03566,-0.204639 -0.06511,-0.130224 -0.248047,-0.130224 z m 2.559533,-0.145728 q 0.204639,0.218591 0.204639,0.641821 0,0.446485 -0.201538,0.680579 -0.199988,0.234094 -0.516247,0.234094 -0.201539,0 -0.334864,-0.100769 -0.07286,-0.05581 -0.142627,-0.162781 v 0.880567 H 14.376486 V 85.66788 h 0.423231 v 0.249597 q 0.07131,-0.110071 0.151928,-0.173633 0.147278,-0.113171 0.350366,-0.113171 0.296106,0 0.502295,0.218591 z m -0.251147,0.663525 q 0,-0.195337 -0.08992,-0.345715 -0.08837,-0.150378 -0.288354,-0.150378 -0.240296,0 -0.330213,0.227893 -0.04651,0.120923 -0.04651,0.306958 0,0.294555 0.15658,0.413928 0.09302,0.06976 0.220142,0.06976 0.184484,0 0.280602,-0.142627 0.09767,-0.142627 0.09767,-0.379822 z m 1.858801,0.606165 q -0.0062,0.0078 -0.03101,0.04651 -0.0248,0.03876 -0.05891,0.06821 -0.103869,0.09302 -0.201538,0.127125 -0.09612,0.03411 -0.226343,0.03411 -0.37517,0 -0.505395,-0.269751 -0.07286,-0.148828 -0.07286,-0.438733 V 85.66788 h 0.452686 v 1.018542 q 0,0.144177 0.03411,0.217041 0.06046,0.128675 0.237195,0.128675 0.226343,0 0.310059,-0.182935 0.04341,-0.09922 0.04341,-0.262 V 85.66788 h 0.448034 v 1.689819 H 17.41196 Z m 1.629358,-0.07596 v 0.330213 l -0.20929,0.0078 q -0.313159,0.01085 -0.42788,-0.10852 -0.07441,-0.07597 -0.07441,-0.234095 v -1.040247 h -0.235645 v -0.314709 h 0.235645 v -0.471289 h 0.437182 v 0.471289 h 0.274402 v 0.314709 H 18.76692 v 0.892969 q 0,0.103869 0.02636,0.130224 0.02635,0.02481 0.161231,0.02481 0.02015,0 0.04186,0 0.02325,-0.0016 0.04496,-0.0031 z"
     id="text12"
     style="font-weight:bold;font-size:12px;font-family:Helvetica;-inkscape-font-specification:'Helvetica Bold';text-align:center;text-anchor:middle;white-space:pre;stroke-width:0.264583"
     inkscape:label="audio_in"
     aria-label="input&#10;" /><path
     d="m 11.919272,108.98951 q 0.213941,0.2682 0.213941,0.63407 0,0.37207 -0.213941,0.63717 -0.21394,0.26355 -0.649572,0.26355 -0.435633,0 -0.649573,-0.26355 -0.213941,-0.2651 -0.213941,-0.63717 0,-0.36587 0.213941,-0.63407 0.21394,-0.2682 0.649573,-0.2682 0.435632,0 0.649572,0.2682 z m -0.651123,0.10542 q -0.193786,0 -0.299206,0.13798 -0.10387,0.13642 -0.10387,0.39067 0,0.25425 0.10387,0.39223 0.10542,0.13797 0.299206,0.13797 0.193787,0 0.297657,-0.13797 0.103869,-0.13798 0.103869,-0.39223 0,-0.25425 -0.103869,-0.39067 -0.10387,-0.13798 -0.297657,-0.13798 z m 2.264978,1.13171 q -0.0062,0.008 -0.03101,0.0465 -0.0248,0.0388 -0.05891,0.0682 -0.103869,0.093 -0.201538,0.12712 -0.09612,0.0341 -0.226343,0.0341 -0.375171,0 -0.505395,-0.26975 -0.07286,-0.14883 -0.07286,-0.43874 v -1.01854 h 0.452686 v 1.01854 q 0,0.14418 0.03411,0.21704 0.06046,0.12868 0.237195,0.12868 0.226343,0 0.310058,-0.18294 0.04341,-0.0992 0.04341,-0.262 v -0.91932 h 0.448034 v 1.68982 h -0.429431 z m 1.629358,-0.076 v 0.33021 l -0.209289,0.008 q -0.31316,0.0108 -0.427881,-0.10853 -0.07441,-0.076 -0.07441,-0.23409 v -1.04025 H 14.21526 v -0.31471 h 0.235645 v -0.47129 h 0.437182 v 0.47129 h 0.274402 v 0.31471 h -0.274402 v 0.89297 q 0,0.10387 0.02636,0.13023 0.02636,0.0248 0.161231,0.0248 0.02015,0 0.04186,0 0.02325,-0.002 0.04496,-0.003 z m 1.699121,-1.19373 q 0.204639,0.2186 0.204639,0.64183 0,0.44648 -0.201538,0.68057 -0.199988,0.2341 -0.516248,0.2341 -0.201538,0 -0.334863,-0.10077 -0.07286,-0.0558 -0.142627,-0.16278 v 0.88057 h -0.437183 v -2.3549 h 0.42323 v 0.2496 q 0.07131,-0.11007 0.151929,-0.17363 0.147278,-0.11318 0.350366,-0.11318 0.296106,0 0.502295,0.21859 z m -0.251147,0.66353 q 0,-0.19534 -0.08992,-0.34571 -0.08837,-0.15038 -0.288355,-0.15038 -0.240295,0 -0.330212,0.22789 -0.04651,0.12092 -0.04651,0.30696 0,0.29455 0.15658,0.41393 0.09302,0.0698 0.220141,0.0698 0.184485,0 0.280603,-0.14263 0.09767,-0.14262 0.09767,-0.37982 z m 1.858801,0.60616 q -0.0062,0.008 -0.03101,0.0465 -0.02481,0.0388 -0.05891,0.0682 -0.10387,0.093 -0.201538,0.12712 -0.09612,0.0341 -0.226343,0.0341 -0.375171,0 -0.505395,-0.26975 -0.07286,-0.14883 -0.07286,-0.43874 v -1.01854 h 0.452685 v 1.01854 q 0,0.14418 0.03411,0.21704 0.06046,0.12868 0.237195,0.12868 0.226342,0 0.310058,-0.18294 0.04341,-0.0992 0.04341,-0.262 v -0.91932 h 0.448035 v 1.68982 H 18.46926 Z m 1.629358,-0.076 v 0.33021 l -0.20929,0.008 q -0.313159,0.0109 -0.427881,-0.10852 -0.07441,-0.076 -0.07441,-0.23409 v -1.04025 h -0.235644 v -0.31471 h 0.235644 v -0.47129 h 0.437183 v 0.47129 h 0.274402 v 0.31471 H 19.82422 v 0.89297 q 0,0.10387 0.02635,0.13023 0.02636,0.0248 0.161231,0.0248 0.02015,0 0.04186,0 0.02325,-0.002 0.04496,-0.003 z"
     id="text13"
     style="font-weight:bold;font-size:12px;font-family:Helvetica;-inkscape-font-specification:'Helvetica Bold';text-align:center;text-anchor:middle;white-space:pre;stroke-width:0.264583"
     inkscape:label="audio_out"
     aria-label="output&#10;" /><g
     inkscape:label="components"
     inkscape:groupmode="layer"
     id="layer1"><circle
       style="display:none;fill:#ff0000;stroke-width:0.264583"
       id="path8"
       cx="15.287284"
       cy="31.546684"
       r="5"
       inkscape:label="grain_size" /><circle
       style="display:none;fill:#00ff00;stroke-width:0.264583"
       id="circle11"
       cx="15.287284"
       cy="54.654385"
       r="5"
       inkscape:label="cv_in" /><circle
       style="display:none;fill:#00ff00;stroke-width:0.264583"
       id="circle12"
       cx="15.287284"
       cy="77.762077"
       r="5"
       inkscape:label="audio_in" /><circle
       style="display:none;fill:#0000ff;stroke-width:0.264583"
       id="circle13"
       cx="15.287284"
       cy="100.86977"
       r="5"
       inkscape:label="audio_out" /></g><path
     d="m 22.47182,9.5672899 c -0.01139,0.109098 -0.09363,0.197025 -0.201095,0.215761 l -3.703673,0.6407321 c 0.219823,0.573163 0.701802,1.89127 0.858119,2.788489 0.05373,0.313447 -0.009,0.625268 -0.179115,0.87846 -0.06839,0.101769 -0.136777,0.168529 -0.200281,0.210862 -0.144919,1.707274 -0.94278,3.589666 -3.570908,4.140736 v 1.102368 h 0.23285 c 0.553612,0 1.00466,0.451048 1.00466,1.004661 0,0.13515 -0.109097,0.244251 -0.244251,0.244251 -0.135149,0 -0.24425,-0.109098 -0.24425,-0.244251 0,-0.284956 -0.231224,-0.516179 -0.516181,-0.516179 h -1.114582 c -0.220636,0 -0.401381,0.179926 -0.401381,0.40138 0,0.135149 -0.109096,0.24425 -0.24425,0.24425 -0.13515,0 -0.244251,-0.109096 -0.244251,-0.24425 0,-0.490128 0.398942,-0.889862 0.889862,-0.889862 h 0.392418 v -1.0185 c -0.361488,0.04885 -0.747383,0.07979 -1.173191,0.07979 -0.172599,0 -0.349275,-0.0041 -0.532458,-0.01303 -0.134335,-0.0065 -0.23854,-0.120493 -0.232038,-0.255651 0.0065,-0.134335 0.128637,-0.240166 0.255652,-0.232038 0.670871,0.03256 1.274964,0 1.818823,-0.09118 0.03256,-0.01628 0.06839,-0.02768 0.107467,-0.02768 0.0065,0 0.01221,0.0033 0.01873,0.0041 2.065511,-0.387542 3.184909,-1.684473 3.321009,-3.882708 0.0048,-0.07734 0.04641,-0.148177 0.111539,-0.189699 0.03338,-0.02199 0.07084,-0.03419 0.109097,-0.03826 0.0114,-0.01058 0.02768,-0.03012 0.04966,-0.06268 0.0977,-0.145734 0.13515,-0.336249 0.103396,-0.522684 -0.191325,-1.099096 -0.932212,-2.952934 -0.939527,-2.971691 -0.02768,-0.0684 -0.0228,-0.145734 0.01302,-0.210049 0.03582,-0.06432 0.09933,-0.109097 0.171787,-0.1221231 l 3.144267,-0.543833 -2.54255,-1.010371 c -0.290645,0.141663 -0.649695,0.403819 -0.637482,0.615493 0.0073,0.134335 -0.09525,0.249941 -0.229598,0.25809 -0.140036,0.009 -0.249941,-0.09525 -0.258091,-0.229598 -0.03256,-0.561763 0.633419,-0.947677 0.912664,-1.083632 0.09607,-0.380205 0.206795,-1.169127 -0.126195,-1.5493316 -0.05048,0.064318 -0.13352,0.091185 -0.216571,0.087929 -0.08141,-0.00651 -0.159574,-0.059435 -0.198653,-0.1310791 -0.0017,-0.00326 -0.188883,-0.3289121 -0.557697,-0.5088435 -0.03175,0.063504 -0.06106,0.1294493 -0.07979,0.1742289 -0.02931,0.071644 -0.08956,0.1253789 -0.164458,0.1449184 -0.07572,0.01954 -0.153874,0.00244 -0.214925,-0.044777 -0.373702,-0.2979821 -0.785651,-0.5682857 -1.019313,-0.6773742 -0.151432,0.2776192 -0.455113,0.5821249 -0.658659,0.7693719 -0.04478,0.041522 -0.104211,0.064318 -0.165272,0.064318 -0.553613,0 -0.998158,0.1848126 -1.359625,0.5650132 -1.06898,1.122711 -0.963956,3.5252631 -0.96233,3.5496491 0.0017,0.03744 -0.0048,0.07491 -0.01955,0.109095 l -3.275364,7.571585 h 0.00162 c 0.867893,0 3.285994,-0.259716 5.430456,-2.90333 1.292868,-1.594101 1.381614,-2.492112 1.228548,-2.965856 -0.175042,-0.54142 -0.713202,-0.69284 -0.735982,-0.69855 -0.12945,-0.035 -0.207608,-0.168529 -0.1726,-0.298795 0.035,-0.129449 0.166089,-0.20598 0.296357,-0.174229 0.03338,0.009 0.812516,0.218198 1.074669,1.01281 0.282518,0.856492 -0.158759,2.010946 -1.311604,3.432514 -0.08385,0.103397 -0.168528,0.196212 -0.253192,0.293085 0.609803,-0.190511 1.397892,-0.545484 1.650292,-1.156914 0.05129,-0.124566 0.194581,-0.183185 0.319136,-0.132706 0.124567,0.05129 0.183999,0.194581 0.132708,0.319137 -0.486043,1.176442 -2.323497,1.55748 -2.72492,1.62749 -1.555022,1.481761 -3.121548,1.952337 -4.151366,2.087563 l -1.6234255,3.207835 c 0.8914869,-0.260529 2.7403425,-1.016874 3.4316815,-2.91792 0.04641,-0.126193 0.187256,-0.192137 0.312635,-0.146546 0.127008,0.04641 0.19214,0.186441 0.146546,0.312635 -1.020939,2.807246 -4.1757514,3.333097 -4.3093504,3.354356 -0.013026,0.0017 -0.025238,0.0033 -0.037451,0.0033 -0.077344,0 -0.1514317,-0.03664 -0.1978391,-0.100141 -0.053734,-0.07409 -0.061876,-0.1726 -0.020355,-0.254025 l 1.7268303,-3.411343 c -0.057804,0.0017 -0.1139823,0.0033 -0.1644581,0.0033 -0.2589029,0 -0.4184713,-0.02036 -0.4461499,-0.02443 -0.075716,-0.01058 -0.1416629,-0.05617 -0.1791144,-0.122122 -0.037451,-0.06676 -0.041522,-0.146547 -0.011398,-0.216572 l 3.3933316,-7.84441 c -0.01221,-0.402193 -0.02931,-2.6671861 1.097471,-3.8516523 0.430685,-0.4526735 0.973731,-0.6936519 1.61609,-0.7156406 0.270303,-0.2589027 0.508843,-0.5503613 0.526746,-0.6496955 0,-0.1351497 0.109097,-0.2352885 0.243438,-0.2352885 0.30857,0 0.862182,0.369617 1.233446,0.6464441 0.03175,-0.056992 0.06758,-0.1131673 0.105027,-0.1595726 0.06268,-0.078159 0.166901,-0.1082819 0.261341,-0.081414 0.431498,0.1310792 0.719704,0.4135942 0.876022,0.6073648 0.01955,-0.00407 0.0399,-0.00814 0.06106,-0.00977 0.0977,-0.010584 0.246689,0.00732 0.40707,0.1432907 0.501507,0.5699113 0.37043,1.5021028 0.27762,1.9222208 l 3.24681,1.289615 c 0.101768,0.04072 0.163645,0.143291 0.153061,0.25238 z m -6.177027,-1.50129 c -0.0456,0.0456 -0.07165,0.110725 -0.07165,0.175857 0,0.06513 0.02605,0.123751 0.07165,0.169343 0.0456,0.0456 0.110725,0.07165 0.175857,0.07165 0.06514,0 0.123752,-0.02605 0.169344,-0.07165 0.0456,-0.0456 0.07165,-0.104211 0.07165,-0.169343 0,-0.06513 -0.02605,-0.130264 -0.07165,-0.175857 -0.01955,-0.01955 -0.0456,-0.03908 -0.07816,-0.05211 -0.09118,-0.03908 -0.195396,-0.01303 -0.26703,0.05211 z"
     id="path1"
     inkscape:label="logo"
     style="stroke-width:0.208423" /></svg>
